<?xml version="1.0" standalone="no"?>
<!DOCTYPE svg PUBLIC "-//W3C//DTD SVG 20010904//EN"
 "http://www.w3.org/TR/2001/REC-SVG-20010904/DTD/svg10.dtd">
<svg version="1.0" xmlns="http://www.w3.org/2000/svg"
 width="1015.000000pt" height="1015.000000pt" viewBox="0 0 1015.000000 1015.000000"
 preserveAspectRatio="xMidYMid meet">
<metadata>
Created by potrace 1.14, written by Peter Selinger 2001-2017
</metadata>
<g transform="translate(0.000000,1015.000000) scale(0.100000,-0.100000)"
fill="#000000" stroke="none">
<path d="M0 9525 l0 -625 605 0 605 0 0 -620 0 -620 -605 0 c-598 0 -605 0
-605 -20 0 -20 7 -20 605 -20 l605 0 0 -610 0 -610 -605 0 -605 0 0 -1300 0
-1300 605 0 605 0 0 -620 0 -620 -605 0 c-598 0 -605 0 -605 -20 0 -20 7 -20
605 -20 l605 0 0 -620 0 -620 -605 0 -605 0 0 -640 0 -640 625 0 625 0 0 620
0 620 620 0 620 0 0 -620 0 -620 660 0 660 0 0 620 0 620 620 0 620 0 0 -620
0 -620 1930 0 1930 0 0 620 0 620 620 0 620 0 0 3850 0 3850 -620 0 -620 0 0
605 0 605 -1930 0 -1930 0 0 -605 0 -605 -620 0 -620 0 0 605 0 605 -660 0
-660 0 0 -605 0 -605 -620 0 -620 0 0 605 0 605 -625 0 -625 0 0 -625z m6330
-1245 l0 -620 -620 0 -620 0 0 620 0 620 620 0 620 0 0 -620z m-3840 -1270 l0
-610 -620 0 -620 0 0 610 0 610 620 0 620 0 0 -610z m1280 0 l0 -610 -620 0
-620 0 0 610 0 610 620 0 620 0 0 -610z m1280 0 l0 -610 -620 0 -620 0 0 610
0 610 620 0 620 0 0 -610z m1280 0 l0 -610 -620 0 -620 0 0 610 0 610 620 0
620 0 0 -610z m-2560 -2550 l0 -620 -620 0 -620 0 0 620 0 620 620 0 620 0 0
-620z m1280 0 l0 -620 -620 0 -620 0 0 620 0 620 620 0 620 0 0 -620z m2560 0
l0 -620 -620 0 -620 0 0 620 0 620 620 0 620 0 0 -620z m-1280 -1280 l0 -620
-620 0 -620 0 0 620 0 620 620 0 620 0 0 -620z m-3840 -1280 l0 -620 -620 0
-620 0 0 620 0 620 620 0 620 0 0 -620z m1280 0 l0 -620 -620 0 -620 0 0 620
0 620 620 0 620 0 0 -620z m2560 0 l0 -620 -620 0 -620 0 0 620 0 620 620 0
620 0 0 -620z"/>
</g>
</svg>
